#tb 0: 1/25
#media_type 0: video
#codec_id 0: rawvideo
#dimensions 0: 320x240
#sar 0: 0/1
0,          0,          0,        1,   115200, 0x4a17d50b
0,          1,          1,        1,   115200, 0x1283d05b
0,          2,          2,        1,   115200, 0x2747c650
0,          3,          3,        1,   115200, 0xba23c933
0,          4,          4,        1,   115200, 0x8a96c54b
0,          5,          5,        1,   115200, 0x748ac6d3
0,          6,          6,        1,   115200, 0x719ca491
0,          7,          7,        1,   115200, 0x3d259d4d
0,          8,          8,        1,   115200, 0xe3599aa8
0,          9,          9,        1,   115200, 0x6fd4affe
